<?xml version="1.0" standalone="no"?>
<!DOCTYPE svg PUBLIC "-//W3C//DTD SVG 20010904//EN"
 "http://www.w3.org/TR/2001/REC-SVG-20010904/DTD/svg10.dtd">
<svg version="1.0" xmlns="http://www.w3.org/2000/svg"
 width="512.000000pt" height="512.000000pt" viewBox="0 0 512.000000 512.000000"
 preserveAspectRatio="xMidYMid meet">
<metadata>
Created by potrace 1.11, written by Peter Selinger 2001-2013
</metadata>
<g transform="translate(0.000000,512.000000) scale(0.100000,-0.100000)"
fill="#000000" stroke="none">
<path d="M1077 4757 c-40 -44 -94 -144 -102 -187 -2 -14 -7 -38 -10 -55 -6
-34 -7 -160 -1 -190 2 -11 7 -40 11 -65 19 -128 92 -315 179 -463 63 -109 305
-472 448 -674 51 -73 107 -151 123 -175 17 -24 101 -141 189 -261 l158 -218
72 107 c39 58 126 181 193 273 102 140 119 169 110 183 -15 21 -1208 1609
-1219 1623 -5 6 -31 40 -59 78 -28 37 -51 67 -52 67 -1 0 -19 -19 -40 -43z"/>
<path d="M3620 4297 c-1512 -2017 -1450 -1929 -1732 -2485 -161 -320 -204
-394 -238 -412 -26 -14 -24 -15 -77 36 -112 107 -218 155 -353 159 -202 7
-367 -88 -483 -278 -107 -176 -124 -426 -43 -627 126 -310 448 -453 721 -318
158 78 246 190 324 414 53 153 116 311 154 389 13 28 32 68 42 90 40 87 137
244 202 325 84 104 197 201 328 279 87 52 123 83 275 238 149 153 199 213 341
409 394 543 738 1040 861 1244 105 175 164 320 203 505 14 62 13 240 -1 293
-25 94 -78 184 -134 228 -12 10 -81 -76 -390 -489z m-975 -1763 c42 -27 67
-72 70 -122 4 -61 -14 -103 -60 -138 -31 -24 -48 -29 -94 -29 -62 0 -104 22
-136 71 -22 34 -27 109 -10 150 13 33 66 78 100 87 33 9 103 -1 130 -19z
m-1361 -1271 c64 -22 121 -76 158 -150 29 -60 33 -75 32 -153 0 -78 -3 -94
-32 -153 -143 -289 -530 -170 -518 160 3 98 31 167 93 229 78 79 168 101 267
67z"/>
<path d="M2871 2008 c-90 -92 -162 -169 -160 -171 23 -15 172 -140 200 -167
114 -113 224 -295 356 -590 29 -65 123 -318 123 -332 0 -26 82 -176 122 -225
263 -316 717 -249 897 132 55 115 66 168 65 310 -1 114 -4 140 -28 210 -44
128 -85 194 -174 279 -95 89 -200 135 -327 142 -149 7 -274 -42 -392 -153 -31
-29 -61 -53 -67 -53 -37 0 -89 87 -279 465 -80 160 -152 297 -159 306 -11 13
-34 -6 -177 -153z m1126 -743 c142 -42 232 -230 188 -395 -14 -54 -61 -134
-95 -163 -81 -69 -207 -84 -290 -35 -99 58 -152 149 -156 271 -5 122 36 218
121 283 70 53 143 65 232 39z"/>
</g>
</svg>
