<svg version="1" xmlns="http://www.w3.org/2000/svg" width="682.667" height="682.667" viewBox="0 0 512 512"><path d="M107.7 36.3c-4 4.4-9.4 14.4-10.2 18.7-.2 1.4-.7 3.8-1 5.5-.6 3.4-.7 16-.1 19 .2 1.1.7 4 1.1 6.5 1.9 12.8 9.2 31.5 17.9 46.3 6.3 10.9 30.5 47.2 44.8 67.4 5.1 7.3 10.7 15.1 12.3 17.5 1.7 2.4 10.1 14.1 18.9 26.1l15.8 21.8 7.2-10.7c3.9-5.8 12.6-18.1 19.3-27.3 10.2-14 11.9-16.9 11-18.3-1.5-2.1-120.8-160.9-121.9-162.3-.5-.6-3.1-4-5.9-7.8-2.8-3.7-5.1-6.7-5.2-6.7-.1 0-1.9 1.9-4 4.3z"/><path d="M362 82.3C210.8 284 217 275.2 188.8 330.8c-16.1 32-20.4 39.4-23.8 41.2-2.6 1.4-2.4 1.5-7.7-3.6-11.2-10.7-21.8-15.5-35.3-15.9-20.2-.7-36.7 8.8-48.3 27.8-10.7 17.6-12.4 42.6-4.3 62.7 12.6 31 44.8 45.3 72.1 31.8 15.8-7.8 24.6-19 32.4-41.4 5.3-15.3 11.6-31.1 15.4-38.9 1.3-2.8 3.2-6.8 4.2-9 4-8.7 13.7-24.4 20.2-32.5 8.4-10.4 19.7-20.1 32.8-27.9 8.7-5.2 12.3-8.3 27.5-23.8 14.9-15.3 19.9-21.3 34.1-40.9 39.4-54.3 73.8-104 86.1-124.4 10.5-17.5 16.4-32 20.3-50.5 1.4-6.2 1.3-24-.1-29.3-2.5-9.4-7.8-18.4-13.4-22.8-1.2-1-8.1 7.6-39 48.9zm-97.5 176.3c4.2 2.7 6.7 7.2 7 12.2.4 6.1-1.4 10.3-6 13.8-3.1 2.4-4.8 2.9-9.4 2.9-6.2 0-10.4-2.2-13.6-7.1-2.2-3.4-2.7-10.9-1-15 1.3-3.3 6.6-7.8 10-8.7 3.3-.9 10.3.1 13 1.9zM128.4 385.7c6.4 2.2 12.1 7.6 15.8 15 2.9 6 3.3 7.5 3.2 15.3 0 7.8-.3 9.4-3.2 15.3-14.3 28.9-53 17-51.8-16 .3-9.8 3.1-16.7 9.3-22.9 7.8-7.9 16.8-10.1 26.7-6.7zm158.7-74.5c-9 9.2-16.2 16.9-16 17.1 2.3 1.5 17.2 14 20 16.7 11.4 11.3 22.4 29.5 35.6 59 2.9 6.5 12.3 31.8 12.3 33.2 0 2.6 8.2 17.6 12.2 22.5 26.3 31.6 71.7 24.9 89.7-13.2 5.5-11.5 6.6-16.8 6.5-31-.1-11.4-.4-14-2.8-21-4.4-12.8-8.5-19.4-17.4-27.9-9.5-8.9-20-13.5-32.7-14.2-14.9-.7-27.4 4.2-39.2 15.3-3.1 2.9-6.1 5.3-6.7 5.3-3.7 0-8.9-8.7-27.9-46.5-8-16-15.2-29.7-15.9-30.6-1.1-1.3-3.4.6-17.7 15.3zm112.6 74.3c14.2 4.2 23.2 23 18.8 39.5-1.4 5.4-6.1 13.4-9.5 16.3-8.1 6.9-20.7 8.4-29 3.5-9.9-5.8-15.2-14.9-15.6-27.1-.5-12.2 3.6-21.8 12.1-28.3 7-5.3 14.3-6.5 23.2-3.9z"/></svg>