<svg id="Layer_2" data-name="Layer 2" xmlns="http://www.w3.org/2000/svg" viewBox="0 0 94.94 94.16">
  <title>scissors</title>
  <g>
    <path d="M-198,83.39a47.19,47.19,0,0,0-8.51-13.1c-.64,1.27-1.3,2.52-2,3.78a43.21,43.21,0,0,1,6.42,10C-200.77,83.84-199.41,83.62-198,83.39Z" transform="translate(288.33 -55)" fill="#80644f" fill-rule="evenodd"/>
    <path d="M-198.32,98.57c.09,1.16.15,2.33.15,3.51a43.09,43.09,0,0,1-43.08,43.09c-.79,0-1.57,0-2.34-.07a7.67,7.67,0,0,1,.22,1.84,6.47,6.47,0,0,1-.41,2.16c.84,0,1.68.07,2.53.07a47.14,47.14,0,0,0,47.08-47.09,48.28,48.28,0,0,0-.41-6.16A39.42,39.42,0,0,1-198.32,98.57Z" transform="translate(288.33 -55)" fill="#80644f" fill-rule="evenodd"/>
    <path d="M-284.33,102.08A43.08,43.08,0,0,1-241.25,59a42.87,42.87,0,0,1,21.57,5.8c1.08-.86,2.21-1.74,3.36-2.63A46.85,46.85,0,0,0-241.25,55a47.13,47.13,0,0,0-47.08,47.08,47.15,47.15,0,0,0,29.66,43.73,17.47,17.47,0,0,1-.57-4.58A43.08,43.08,0,0,1-284.33,102.08Z" transform="translate(288.33 -55)" fill="#80644f" fill-rule="evenodd"/>
    <path d="M-249.56,139.91c7.74-2.72,16.31-9.66,14.54-19.83-.9-5.14-4.48-5-7.27-9.25,14.44-12,24.21-28.66,33-46.26h-2c-7.45,5.66-21.91,17-28.42,26.43-2.6,3.78-4.59,9.32-7.27,13.88-4.54,7.75-15.12,21.23-6.61,31.06-1.38,4.62-1.2,12.39,4,12.56C-246.29,146.77-250.95,143.9-249.56,139.91Zm8.31-38.83a2.58,2.58,0,0,1,2.58,2.59,2.58,2.58,0,0,1-2.58,2.58,2.58,2.58,0,0,1-2.58-2.58A2.58,2.58,0,0,1-241.25,101.08ZM-251.54,130c-1.86-9,7-17,11.89-9.26C-239.39,128.16-245.83,136.51-251.54,130Z" transform="translate(288.33 -55)" fill="#80644f" fill-rule="evenodd"/>
    <path d="M-232.38,106.2c14-5.2,30.58-7.75,39-18.5-9.41,1.38-18.12,3.47-27.75,4.63C-223.28,98.56-228.18,102-232.38,106.2Z" transform="translate(288.33 -55)" fill="#80644f" fill-rule="evenodd"/>
    <path d="M-276,95c-4.22,12.25,8.43,16,21.81,13.88,3.79-4.82,5.85-10,2-15.86C-257.1,85.53-273.12,86.61-276,95Zm5.29,7.27c-5.12-10.84,12.89-11.07,14.54-5.29C-254,104.58-265.27,105-270.71,102.24Z" transform="translate(288.33 -55)" fill="#80644f" fill-rule="evenodd"/>
  </g>
</svg>
