<svg data-name="Layer 2" xmlns="http://www.w3.org/2000/svg" viewBox="0 0 94.94 94.16"><g fill="#80644f" fill-rule="evenodd"><path d="M90.33 28.39a47.19 47.19 0 0 0-8.51-13.1c-.64 1.27-1.3 2.52-2 3.78a43.21 43.21 0 0 1 6.42 10c1.32-.23 2.68-.45 4.09-.68zm-.32 15.18c.09 1.16.15 2.33.15 3.51a43.09 43.09 0 0 1-43.08 43.09c-.79 0-1.57 0-2.34-.07a7.67 7.67 0 0 1 .22 1.84 6.47 6.47 0 0 1-.41 2.16c.84 0 1.68.07 2.53.07a47.14 47.14 0 0 0 47.08-47.09 48.28 48.28 0 0 0-.41-6.16 39.42 39.42 0 0 1-3.74 2.65zM4 47.08A43.08 43.08 0 0 1 47.08 4a42.87 42.87 0 0 1 21.57 5.8c1.08-.86 2.21-1.74 3.36-2.63A46.85 46.85 0 0 0 47.08 0 47.13 47.13 0 0 0 0 47.08a47.15 47.15 0 0 0 29.66 43.73 17.47 17.47 0 0 1-.57-4.58A43.08 43.08 0 0 1 4 47.08z"/><path d="M38.77 84.91c7.74-2.72 16.31-9.66 14.54-19.83-.9-5.14-4.48-5-7.27-9.25 14.44-12 24.21-28.66 33-46.26h-2c-7.45 5.66-21.91 17-28.42 26.43-2.6 3.78-4.59 9.32-7.27 13.88-4.54 7.75-15.12 21.23-6.61 31.06-1.38 4.62-1.2 12.39 4 12.56 3.3-1.73-1.36-4.6.03-8.59zm8.31-38.83a2.58 2.58 0 0 1 2.58 2.59 2.58 2.58 0 0 1-2.58 2.58 2.58 2.58 0 0 1-2.58-2.58 2.58 2.58 0 0 1 2.58-2.59zM36.79 75c-1.86-9 7-17 11.89-9.26.26 7.42-6.18 15.77-11.89 9.26z"/><path d="M55.95 51.2c14-5.2 30.58-7.75 39-18.5-9.41 1.38-18.12 3.47-27.75 4.63-2.15 6.23-7.05 9.67-11.25 13.87zM12.33 40c-4.22 12.25 8.43 16 21.81 13.88 3.79-4.82 5.85-10 2-15.86-4.91-7.49-20.93-6.41-23.81 1.98zm5.29 7.27C12.5 36.43 30.51 36.2 32.16 41.98c2.17 7.6-9.1 8.02-14.54 5.26z"/></g></svg>