<svg xmlns="http://www.w3.org/2000/svg"><symbol id="icon-beard-1" viewBox="0 0 51.48 49.48">
  <title>icon-beard-1</title>
  <path d="M50.87,0h-.24c-2.31,7.69-2.93,17.07-9.36,20.64-1.19-3.35-4.11-4.89-7.44-6.36-2.12-.93-4.55-2.56-6.6-2.64a2.18,2.18,0,0,0-1.5.32,2.18,2.18,0,0,0-1.5-.32c-2.05.08-4.48,1.71-6.6,2.64-3.33,1.47-6.25,3-7.44,6.36C3.75,17.07,3.14,7.69.83,0H.59A14,14,0,0,0,0,2.4C0,4.32.53,23.86,1.91,30.84,3.15,37.13,8,41.67,12.71,44.64c3.29,2.07,8.51,4.84,13,4.84s9.73-2.77,13-4.84c4.72-3,9.56-7.51,10.8-13.8,1.38-7,1.92-26.52,1.92-28.44A14,14,0,0,0,50.87,0ZM36.94,28.06c-.24,1.55-1.66,3.38-3.36,3.48-3,.16-4.51-4.42-7.86-4.38s-4.88,4.54-7.86,4.38c-1.7-.1-3.11-1.93-3.36-3.48a7.55,7.55,0,0,1,1.68-5.64c1.1-1.07,2.82-.93,4.68-1.2a8.68,8.68,0,0,0,4.86-1.95h0a8.68,8.68,0,0,0,4.86,1.95c1.86.27,3.58.13,4.68,1.2A7.55,7.55,0,0,1,36.94,28.06Z" transform="translate(0.01 0)"/>
</symbol><symbol id="icon-beard-2" viewBox="0 0 57.68 68.64">
  <title>icon-beard-2</title>
  <path d="M51.6,22.2c.12-1.7.47-3.51.72-5.4C53,11.37,53.92,5.13,52.2,0H52C50.64,3.74,50.7,8.35,49.8,12.36a19.62,19.62,0,0,1-3.24,7.56c-.53.69-1.06,1.55-1.92,1.8C44,17.8,40.36,16.78,37,15.36c-2.13-.89-4-2-6.12-2.16a11.27,11.27,0,0,0-2,.23,11.27,11.27,0,0,0-2-.23c-2.15.15-4,1.27-6.12,2.16-3.39,1.42-7,2.44-7.68,6.36-.86-.25-1.39-1.11-1.92-1.8a19.93,19.93,0,0,1-3.24-7.56C7,8.35,7.05,3.74,5.72,0H5.48c-1.71,5.13-.82,11.37-.12,16.8.25,1.89.6,3.7.72,5.4.79,11.05-6.95,23.12-6,28.92.93,7.53,8.4,9.4,14.16,12.36,4.35,2.24,8.31,5,13.32,5.16h2.56c5-.21,9-2.93,13.32-5.16,5.76-3,13.23-4.83,14.16-12.36C58.55,45.32,50.81,33.25,51.6,22.2ZM28.84,25.94h0a35.83,35.83,0,0,1-7.16-.5c.67-2.05,4-1.56,7.08-1.56h.16c3,0,6.42-.49,7.08,1.56A35.78,35.78,0,0,1,28.84,25.94Z" transform="translate(0 0)"/>
</symbol><symbol id="icon-beard-3" viewBox="0 0 62.4 78.49">
  <title>icon-beard-3</title>
  <path d="M62.4,42c0-5.21-2.37-7.78-3.6-10A55.8,55.8,0,0,1,54.6,14.4C54.53,9.49,52.91,2,51.72,0c-.87,0-1.52,7.78-2.28,11.64-1.43,7-3.77,8.93-4.44,9-.76-2.81-4.11-7.36-13.68-7.73l-.12,0-.13,0c-9.56.36-12.92,4.92-13.67,7.73-.68-.07-3-2-4.44-9C12.2,7.78,11.54,0,10.68,0,9.49,2,7.87,9.49,7.8,14.4A56.08,56.08,0,0,1,3.6,32C2.37,34.22,0,36.79,0,42c0,3.74,5.2,7.2,5.64,11.4.12,1.22,0,2.35.12,3.36,2,17.48,17.87,21.73,25.44,21.73h0c7.57,0,23.44-4.25,25.44-21.73.15-1,0-2.14.12-3.36C57.2,49.2,62.4,45.75,62.4,42ZM33.24,26.76a21.39,21.39,0,0,0-4.08,0c-1.73.34-5.76,1-5.76-1.08,0-1.07,6.72-2.3,7.8-2.3s7.8,1.23,7.8,2.3C39,27.75,35,27.1,33.24,26.76Z" transform="translate(0 0)"/>
</symbol><symbol id="icon-beard-4" viewBox="0 0 57 97.68">
  <title>icon-beard-4</title>
  <path d="M51.12,15.24C50.73,9.79,50.51,4.39,48.6,0c-.76,0-1.53,7.31-2.28,10.92-1.48,7.14-3.71,8.28-4.44,8.28C41,15.34,37.5,15,34.08,13.32a11.16,11.16,0,0,0-3.6-1.2,13.32,13.32,0,0,0-2,.12,13.32,13.32,0,0,0-2-.12,11.16,11.16,0,0,0-3.6,1.2c-3.42,1.64-6.94,2-7.8,5.88-.73,0-3-1.14-4.44-8.28C9.93,7.31,9.16,0,8.4,0,6.49,4.39,6.27,9.79,5.88,15.24,5,38.78,0,51.53,0,62.4,0,88.47,11.71,97.68,28.5,97.68S57,88.47,57,62.4C57,51.53,52,38.78,51.12,15.24ZM34.44,25c-2.79,1.17-5.35-.71-5.88-.72h-.12c-.53,0-3.09,1.89-5.88.72-.78-3.58,2.4-4,5.94-3.91C32.05,20.92,35.23,21.38,34.44,25Z" transform="translate(0 0)"/>
</symbol><symbol id="icon-beard-5" viewBox="0 0 44.66 104.78">
  <title>icon-beard-5</title>
  <path d="M43.39,0h-.12c-2.81,21.53-5.38,22.56-7,22.68s-3.64-1.77-4.92-2.52a15.93,15.93,0,0,0-9.06-2.54,15.93,15.93,0,0,0-9.06,2.54c-1.28.75-3.5,2.63-4.92,2.52C6.77,22.56,4.2,21.53,1.39,0H1.27C-.8,12.21-.29,50.2,2.47,63.6c2.61,18.52,10.11,35.1,13.44,39.6.68,1,3.53,1.57,6.42,1.58s5.74-.54,6.42-1.58c3.33-4.5,10.83-21.08,13.44-39.6C45,50.2,45.46,12.21,43.39,0ZM22.33,28.15a99.13,99.13,0,0,0-10.14.53c1.13-1.75,9-3.24,10.14-3.45,1.15.21,9,1.7,10.14,3.45A99.28,99.28,0,0,0,22.33,28.15Z" transform="translate(0 0)"/>
</symbol><symbol id="icon-logo-desktop" viewBox="0 0 369.46 153.05">
  <title>icon-logo-desktop</title>
  <g>
    <path d="M119.86,11.43C127,9,127.59,0,120.51,0c-2,0-4.28,1.37-5.88,4.17l-9.58,16.56a13.91,13.91,0,0,1-1.37,2c-2.47-3.38-1.75-8.45,1.71-10.67L104,10.27c-7.46,4.75-5.27,18.47,7.18,18.47C121.78,28.74,126.7,16,119.86,11.43ZM111.07,26a10.26,10.26,0,0,1-5.13-1.23,18.49,18.49,0,0,0,1.77-2.53l6-10.37,1,.1C123,13.72,119.69,26,111.07,26ZM114.9,9.79l2.87-4.93c2.6-4.48,5.92-1.85,4.14,1.5C120.54,8.93,118.52,9.72,114.9,9.79Z" transform="translate(0)"/>
    <path d="M259.21,19l-.24.28a16.76,16.76,0,0,1-6.5,5c.58-.92,1-1.91,1.47-2.67l3.94-6.74c3.32-5.64-2.06-7.52-5.68-4.27l.72-1.23h-3.56L243.79,19h0l-.24.27a7.66,7.66,0,0,1-5.37,2.63l3.35-5.78c2.16-3.73.18-7.25-3.18-7.25-2.74,0-4.86,1.09-6.91,4.65l-1.74,3.05L228.23,19l-.19.22c-2.56,3-5.06,5.34-6.63,5.34-.79,0-1.24-.55-.42-1.95l5.14-9c1.54-2.7.07-4.65-1.92-4.65-1.54,0-3.18.85-5,2.7l5.68-9.89h-3.56L211.45,19l-.21.23A22,22,0,0,1,207,23.1c1.13-3.39.89-8.59,3.08-13.14l-2.67-1.44c-1.47,2-4.69,6.67-7.9,10.44h0l-.24.27c-2.57,3-5.07,5.34-6.64,5.34-.79,0-1.23-.55-.41-1.95l3.56-6.23c1.23-2.16.65-3.42-.52-4.82l-2-2.4a1.39,1.39,0,0,1,.2-2l-1.84-2c-2,1.81-2.19,3.83-.93,5.47L191,11c-1.57,2.23-3.69,5.24-6,8l-.24.27c-2.56,3-5.85,5.34-8.35,5.34-2.19,0-3.49-1.37-1.84-4.24l.34-.62c2.29,1,6.6.51,9.27-4.11l.51-.89c1.92-3.28.07-5.74-2.84-5.74a7.53,7.53,0,0,0-6.67,4.1L171.7,19l-.21.24a7.63,7.63,0,0,1-5.37,2.64l3.35-5.79A8.66,8.66,0,0,0,170.81,12a3,3,0,0,0-3.22-3.18,4.16,4.16,0,0,0-2.33.79l4.52-7.84h-3.63L156.18,19l-.19.21c-2.57,3-5.06,5.34-6.64,5.34-.78,0-1.23-.55-.41-1.95l3.56-6.23c1.23-2.15.65-3.42-.51-4.82l-2-2.4a1.39,1.39,0,0,1,.21-2l-1.85-2c-2,1.81-2.19,3.83-.92,5.48l.31.41c-1.58,2.22-3.7,5.23-6,8l-.24.27c-2.57,3-5.07,5.34-6.64,5.34-.79,0-1.23-.55-.41-1.95l5.75-10.06h-2A3.7,3.7,0,0,0,134.44,9c-1.92,0-4.59,1.5-6.09,4.1l-5,8.62c-1.5,2.64-.44,5.07,2.43,5.07,1.44,0,3.22-.93,4.93-2.33.17,1.37,1.27,2.33,3.08,2.33,2.94,0,6.33-3.15,9.27-6.57h0c1.71-2,3.05-3.76,5.89-7.63l.47.58a1.74,1.74,0,0,1,.21,2l-3.76,6.53c-1.51,2.64-.45,5.07,2.42,5.07,2.07,0,4.35-1.55,6.54-3.65v0c0,2.43,1.81,3.8,4.11,3.8A7.87,7.87,0,0,0,165,23.61a6.87,6.87,0,0,0,.79,0,10.4,10.4,0,0,0,4.72-1.4c-.18,2.57,1.68,4.52,4.82,4.52,4,0,8-3.15,11-6.57,1.71-2,3-3.76,5.88-7.63l.48.58a1.76,1.76,0,0,1,.2,2l-3.76,6.54c-1.51,2.63-.44,5.06,2.43,5.06s6.33-3.15,9.27-6.57h0c2-2.32,3.8-4.82,5.06-6.5-1.4,3.7-.65,10.33-4,10.33a2,2,0,0,1-1.68-1.3l-2.22,1.17a3.88,3.88,0,0,0,3.9,2.87,8.24,8.24,0,0,0,1-.07l.1,0a12.67,12.67,0,0,0,5.47-2.36l-1.23,2.12h3.6l5.4-9.41c5.48-6.87,7.9-6,6.36-3.35l-4.61,8c-1.51,2.63-.45,5.06,2.43,5.06,2.06,0,4.35-1.55,6.55-3.66,0,4.53,6.29,5.42,10.14.55h.79a10,10,0,0,0,3.81-.94L235.16,34h3.59l10.64-18.51c4-5.41,6.47-3.42,5.55-1.82l-5.37,9.31c-.59,1-1.92,1.34-2.57,0l-2,1a3.88,3.88,0,0,0,3.9,2.87h.21c5.16-.1,8.55-3.18,11.46-6.57A2.29,2.29,0,0,0,259.21,19Zm-81-5c2.06-3.53,5.68-2.94,3.56.75l-.51.89c-1.71,2.91-4,2.84-5.34,2.36Zm-45.6,5.61c-2.16,3.39-4.28,5-5.75,5-.79,0-1.23-.54-.41-1.94l5-8.66c1.92-3.32,5.71-2.46,4,.75Zm26.79,4.86a1.33,1.33,0,0,1-1.44-1.37,3.93,3.93,0,0,1,.62-1.85L159.82,19a5.26,5.26,0,0,0,2.26,3.7A3.34,3.34,0,0,1,159.38,24.43ZM163.1,21a3.84,3.84,0,0,1-1.5-3.21c0-2.54,2.46-6.68,4.48-6.68a1.36,1.36,0,0,1,1.34,1.54,4.37,4.37,0,0,1-.69,2.13Zm73.08-1.78H236a2.1,2.1,0,0,0-2.08,2.12,2.28,2.28,0,0,0,.34,1.2l0,.07c-1.67,2.87-5.74,2.33-3.62-1.37l2.7-4.69,1.71-2.9c2.5-4.25,5.92-2.57,3.77,1.13Z" transform="translate(0)"/>
  </g>
  <rect x="1.68" y="69.23" width="8.08" height="8.08" transform="translate(-50.13 25.49) rotate(-44.99)"/>
  <rect x="353.67" y="69.22" width="8.08" height="8.08" transform="translate(52.95 274.37) rotate(-44.99)"/>
  <g>
    <polygon points="46.8 73.48 48.88 73.48 48.88 65.16 52.15 65.16 52.15 63.07 46.8 63.07 46.8 73.48"/>
    <path d="M61.69,75V62.32a4.59,4.59,0,0,0-2.56-4.07,4.46,4.46,0,0,1,.48,2V72.93A4.5,4.5,0,0,1,58,76.44a5.19,5.19,0,0,1,1.66,3.69V94.24a4.63,4.63,0,0,1-4.56,4.55H41.49v2.09H57.13a4.63,4.63,0,0,0,4.56-4.56V82.21A5.21,5.21,0,0,0,60,78.52,4.46,4.46,0,0,0,61.69,75Z" transform="translate(0)"/>
    <polygon points="46.8 91.34 48.88 91.34 48.88 82.95 52.15 82.95 52.15 80.87 46.8 80.87 46.8 91.34"/>
  </g>
  <g>
    <polygon points="79.81 91.34 81.89 91.34 81.89 65.16 85.16 65.16 85.16 63.07 79.81 63.07 79.81 91.34"/>
    <path d="M92.14,58.25a4.46,4.46,0,0,1,.48,2v34a4.62,4.62,0,0,1-4.56,4.56H77a4.43,4.43,0,0,1-2-.48,4.57,4.57,0,0,0,4.07,2.56H90.15a4.62,4.62,0,0,0,4.55-4.55v-34A4.59,4.59,0,0,0,92.14,58.25Z" transform="translate(0)"/>
  </g>
  <g>
    <polygon points="112.82 73.48 114.9 73.48 114.9 65.16 118.18 65.16 118.18 63.07 112.82 63.07 112.82 73.48"/>
    <path d="M125.07,82.52a4.46,4.46,0,0,0,2.58-4.06V62.32a4.55,4.55,0,0,0-2.56-4.09,4.62,4.62,0,0,1,.48,2V76.37A4.48,4.48,0,0,1,123,80.44l3.08,18.35H120.4l.35,2.08h7.4Z" transform="translate(0)"/>
    <polygon points="115.65 80.87 112.82 80.87 112.82 98.79 107.51 98.79 107.51 100.88 114.9 100.88 114.9 82.95 116 82.95 115.65 80.87"/>
  </g>
  <g>
    <polygon points="144.84 91.34 146.93 91.34 146.93 65.16 150.2 65.16 150.2 63.07 144.84 63.07 144.84 91.34"/>
    <path d="M157.18,58.25a4.46,4.46,0,0,1,.48,2v34a4.63,4.63,0,0,1-4.56,4.56H142a4.42,4.42,0,0,1-2-.48,4.54,4.54,0,0,0,4.07,2.56h11.08a4.62,4.62,0,0,0,4.56-4.55v-34A4.59,4.59,0,0,0,157.18,58.25Z" transform="translate(0)"/>
  </g>
  <g>
    <polygon points="177.85 91.34 179.94 91.34 179.94 65.16 183.21 65.16 183.21 63.07 177.85 63.07 177.85 91.34"/>
    <path d="M190.19,58.25a4.46,4.46,0,0,1,.48,2v34a4.63,4.63,0,0,1-4.56,4.56H172.55v2.08h15.64a4.62,4.62,0,0,0,4.56-4.55v-34A4.59,4.59,0,0,0,190.19,58.25Z" transform="translate(0)"/>
  </g>
  <polygon points="211.24 57.77 211.24 98.79 205.93 98.79 205.93 100.88 213.32 100.88 213.32 57.77 211.24 57.77"/>
  <g>
    <polygon points="244.12 57.77 244.12 98.79 238.22 98.79 238.81 100.88 246.21 100.88 246.21 57.77 244.12 57.77"/>
    <polygon points="231.31 79.95 231.31 98.79 226.01 98.79 226.01 100.88 233.4 100.88 233.4 87.19 231.31 79.95"/>
  </g>
  <g>
    <path d="M263.58,83h6.11V80.87H261.5a4.44,4.44,0,0,1-2-.48A4.52,4.52,0,0,0,263.58,83Z" transform="translate(0)"/>
    <polygon points="266.41 85.73 264.32 86.21 264.32 91.34 266.41 91.34 266.41 85.73"/>
    <path d="M276.66,58.25a4.6,4.6,0,0,1,.48,2V69l-5.37,1.25v2.56l7.45-1.72V62.32A4.59,4.59,0,0,0,276.66,58.25Z" transform="translate(0)"/>
    <path d="M276.66,76.05a4.56,4.56,0,0,1,.48,2V94.23a4.63,4.63,0,0,1-4.56,4.56H261.49a4.42,4.42,0,0,1-2-.48,4.54,4.54,0,0,0,4.07,2.56h11.08a4.63,4.63,0,0,0,4.56-4.55V80.12A4.59,4.59,0,0,0,276.66,76.05Z" transform="translate(0)"/>
    <polygon points="264.32 63.07 264.32 73.48 266.41 73.48 266.41 65.16 269.68 65.16 269.68 63.07 264.32 63.07"/>
  </g>
  <g>
    <polygon points="298.01 80.87 297.33 80.87 297.33 98.79 292.03 98.79 292.03 100.88 299.42 100.88 299.42 85.35 298.01 80.87"/>
    <polygon points="313.15 57.77 310.4 57.77 304.17 77.18 311.07 98.79 305.06 98.79 305.64 100.63 305.7 100.88 313.15 100.88 306.25 79.26 313.15 57.77"/>
  </g>
  <polygon points="330.53 57.77 330.53 98.79 325.23 98.79 325.23 100.88 332.61 100.88 332.61 57.77 330.53 57.77"/>
  <g id="UUIVGv.tif">
    <path d="M167.9,123.85h1.41c5.43.27,9.68,1.72,12.39,4.72,2.74-3,7-4.46,12.46-4.72h1.34c12.11.82,17.63,9.49,27.31,13.19a11.07,11.07,0,0,0,4.78,1c2.48-.27,4.06-2.78,3.74-5.59-.34-3-3.27-5.6-6.56-4.17a4.46,4.46,0,0,0-1.17.8c-.25.23-.53.83-1.16.61-.6-.49,0-1.22.31-1.65a6,6,0,0,1,6.07-3c5.63.4,10.67,5.34,9.81,12.82-1.92,11.21-12.1,14.15-24.17,15.22h-3.92A48.36,48.36,0,0,1,181.76,142a49.06,49.06,0,0,1-28.89,11.05H149c-12.16-1.07-22.44-4-24.23-15.46-.68-8.16,4.18-12.18,9.81-12.58a6.13,6.13,0,0,1,6.14,3c.28.46.8,1.16.31,1.72-.61.1-.91-.37-1.17-.62a4,4,0,0,0-2.82-1.23c-3.86-.14-6.08,4.16-4.54,7.61a4.33,4.33,0,0,0,3.37,2.52,11.77,11.77,0,0,0,4.79-1,23.93,23.93,0,0,0,3.86-1.91C151.89,130.81,157.64,124.76,167.9,123.85Z" transform="translate(0)"/>
  </g>
  <rect x="361.52" y="79.65" width="8.08" height="2.95" transform="translate(49.72 282.28) rotate(-45.01)"/>
  <rect x="9.53" y="79.66" width="8.08" height="2.95" transform="translate(-53.4 33.36) rotate(-45)"/>
  <g>
    <path d="M55.65,69A4.5,4.5,0,0,1,54,72.48a5.19,5.19,0,0,1,1.66,3.69v14.1a4.62,4.62,0,0,1-4.56,4.56H35.45V51.72H51.09a4.59,4.59,0,0,1,4.56,4.56V69ZM48.2,59.11H42.84V69.52H48.2Zm0,17.8H42.84V87.38H48.2Z" transform="translate(0)"/>
    <path d="M84.1,51.72a4.59,4.59,0,0,1,4.56,4.56v34a4.62,4.62,0,0,1-4.56,4.55H73a4.58,4.58,0,0,1-4.56-4.55v-34A4.55,4.55,0,0,1,73,51.72Zm-2.89,7.39H75.85V87.38h5.36Z" transform="translate(0)"/>
    <path d="M114.71,94.83l-3-17.92h-2.83V94.83h-7.39V51.72h15.64a4.54,4.54,0,0,1,4.5,4.56V72.42A4.47,4.47,0,0,1,119,76.48l3.08,18.35Zm-.49-35.72h-5.36V69.52h5.36Z" transform="translate(0)"/>
    <path d="M149.14,51.72a4.59,4.59,0,0,1,4.56,4.56v34a4.62,4.62,0,0,1-4.56,4.55H138.06a4.58,4.58,0,0,1-4.56-4.55v-34a4.55,4.55,0,0,1,4.56-4.56Zm-2.89,7.39h-5.36V87.38h5.36Z" transform="translate(0)"/>
    <path d="M182.15,51.72a4.59,4.59,0,0,1,4.56,4.56v34a4.62,4.62,0,0,1-4.56,4.55H166.51V51.72Zm-2.89,7.39H173.9V87.38h5.36Z" transform="translate(0)"/>
    <path d="M199.89,51.72h7.39V94.83h-7.39Z" transform="translate(0)"/>
    <path d="M240.17,51.72V94.83h-7.39L227.36,76V94.83H220V51.72h7.32l5.42,17.68V51.72Z" transform="translate(0)"/>
    <path d="M268.62,69.52a4.59,4.59,0,0,1,4.56,4.56v16.2a4.63,4.63,0,0,1-4.56,4.55H257.54A4.58,4.58,0,0,1,253,90.28V81.41l7.39-1.73v7.7h5.36V76.91h-8.19A4.55,4.55,0,0,1,253,72.35V56.28a4.55,4.55,0,0,1,4.56-4.56h11.08a4.6,4.6,0,0,1,4.56,4.56V65l-7.45,1.72V59.11h-5.36V69.52Z" transform="translate(0)"/>
    <path d="M300.22,73.22l6.89,21.61h-7.45l-.06-.24-5.54-17.68h-.68V94.83H286V51.72h7.39v17.8h.55l5.67-17.8h7.51Z" transform="translate(0)"/>
    <path d="M319.19,51.72h7.39V94.83h-7.39Z" transform="translate(0)"/>
  </g>
</symbol><symbol id="icon-logo-mobile" viewBox="0 0 225.81 30.04">
  <title>icon-logo-mobile</title>
  <g>
    <rect x="1.02" y="10.7" width="4.94" height="4.94" transform="translate(-8.29 6.33) rotate(-45)"/>
    <rect x="216.15" y="10.71" width="4.94" height="4.94" transform="translate(54.71 158.45) rotate(-45)"/>
    <g>
      <polygon points="28.6 13.3 29.88 13.3 29.88 8.21 31.88 8.21 31.88 6.94 28.6 6.94 28.6 13.3"/>
      <path d="M37.71,14.23V6.48A2.81,2.81,0,0,0,36.14,4a2.77,2.77,0,0,1,.29,1.21V13a2.69,2.69,0,0,1-1,2.14,3.17,3.17,0,0,1,1,2.26V26a2.83,2.83,0,0,1-2.78,2.79H25.36V30h9.56a2.84,2.84,0,0,0,2.79-2.79V18.64a3.2,3.2,0,0,0-1-2.26A2.74,2.74,0,0,0,37.71,14.23Z" transform="translate(0)"/>
      <polygon points="28.6 24.21 29.88 24.21 29.88 19.09 31.88 19.09 31.88 17.81 28.6 17.81 28.6 24.21"/>
    </g>
    <g>
      <polygon points="48.78 24.21 50.05 24.21 50.05 8.21 52.05 8.21 52.05 6.94 48.78 6.94 48.78 24.21"/>
      <path d="M56.31,4a2.64,2.64,0,0,1,.3,1.21V26a2.83,2.83,0,0,1-2.79,2.79H47.05a2.78,2.78,0,0,1-1.22-.3A2.79,2.79,0,0,0,48.32,30h6.77a2.83,2.83,0,0,0,2.79-2.79V6.48A2.79,2.79,0,0,0,56.31,4Z" transform="translate(0)"/>
    </g>
    <g>
      <polygon points="68.95 13.3 70.23 13.3 70.23 8.21 72.23 8.21 72.23 6.94 68.95 6.94 68.95 13.3"/>
      <path d="M76.44,18.82A2.72,2.72,0,0,0,78,16.34V6.48A2.8,2.8,0,0,0,76.45,4a2.87,2.87,0,0,1,.3,1.24v9.86a2.73,2.73,0,0,1-1.59,2.48l1.89,11.22H73.59L73.8,30h4.52Z" transform="translate(0)"/>
      <polygon points="70.69 17.81 68.95 17.81 68.95 28.77 65.71 28.77 65.71 30.04 70.23 30.04 70.23 19.09 70.9 19.09 70.69 17.81"/>
    </g>
    <g>
      <polygon points="88.53 24.21 89.8 24.21 89.8 8.21 91.8 8.21 91.8 6.94 88.53 6.94 88.53 24.21"/>
      <path d="M96.06,4a2.64,2.64,0,0,1,.3,1.21V26a2.83,2.83,0,0,1-2.79,2.79H86.79a2.77,2.77,0,0,1-1.21-.3A2.79,2.79,0,0,0,88.07,30h6.77a2.83,2.83,0,0,0,2.79-2.79V6.48A2.79,2.79,0,0,0,96.06,4Z" transform="translate(0)"/>
    </g>
    <g>
      <polygon points="108.7 24.21 109.98 24.21 109.98 8.21 111.98 8.21 111.98 6.94 108.7 6.94 108.7 24.21"/>
      <path d="M116.24,4a2.77,2.77,0,0,1,.29,1.21V26a2.83,2.83,0,0,1-2.78,2.79h-8.29V30H115a2.83,2.83,0,0,0,2.78-2.79V6.48A2.8,2.8,0,0,0,116.24,4Z" transform="translate(0)"/>
    </g>
    <polygon points="129.1 3.69 129.1 28.77 125.86 28.77 125.86 30.04 130.38 30.04 130.38 3.69 129.1 3.69"/>
    <g>
      <polygon points="149.21 3.69 149.21 28.77 145.6 28.77 145.96 30.04 150.48 30.04 150.48 3.69 149.21 3.69"/>
      <polygon points="141.38 17.25 141.38 28.77 138.13 28.77 138.13 30.04 142.65 30.04 142.65 21.68 141.38 17.25"/>
    </g>
    <g>
      <path d="M161.09,19.09h3.74V17.81h-5a2.64,2.64,0,0,1-1.22-.29A2.76,2.76,0,0,0,161.09,19.09Z" transform="translate(0)"/>
      <polygon points="162.82 20.78 161.55 21.08 161.55 24.21 162.82 24.21 162.82 20.78"/>
      <path d="M169.09,4a2.77,2.77,0,0,1,.29,1.21v5.35l-3.28.76v1.57l4.55-1.06V6.48A2.8,2.8,0,0,0,169.09,4Z" transform="translate(0)"/>
      <path d="M169.09,14.87a2.77,2.77,0,0,1,.29,1.21V26a2.83,2.83,0,0,1-2.79,2.79h-6.77a2.71,2.71,0,0,1-1.21-.3A2.77,2.77,0,0,0,161.09,30h6.78a2.83,2.83,0,0,0,2.78-2.79v-9.9A2.78,2.78,0,0,0,169.09,14.87Z" transform="translate(0)"/>
      <polygon points="161.55 6.94 161.55 13.3 162.82 13.3 162.82 8.21 164.83 8.21 164.83 6.94 161.55 6.94"/>
    </g>
    <g>
      <polygon points="182.14 17.81 181.73 17.81 181.73 28.77 178.48 28.77 178.48 30.04 183 30.04 183 20.55 182.14 17.81"/>
      <polygon points="191.39 3.69 189.71 3.69 185.91 15.55 190.12 28.77 186.45 28.77 186.8 29.89 186.84 30.04 191.39 30.04 187.18 16.83 191.39 3.69"/>
    </g>
    <polygon points="202.02 3.69 202.02 28.77 198.77 28.77 198.77 30.04 203.29 30.04 203.29 3.69 202.02 3.69"/>
    <rect x="220.96" y="17.08" width="4.94" height="1.8" transform="translate(52.75 163.28) rotate(-45.01)"/>
    <rect x="5.83" y="17.08" width="4.94" height="1.8" transform="translate(-10.28 11.13) rotate(-45)"/>
    <g>
      <path d="M34,10.54a2.75,2.75,0,0,1-1,2.15,3.16,3.16,0,0,1,1,2.25v8.62a2.83,2.83,0,0,1-2.78,2.79H21.67V0h9.56A2.8,2.8,0,0,1,34,2.79Zm-4.55-6H26.18v6.36h3.28Zm0,10.88H26.18v6.39h3.28Z" transform="translate(0)"/>
      <path d="M51.4,0a2.8,2.8,0,0,1,2.79,2.79V23.56a2.83,2.83,0,0,1-2.79,2.79H44.63a2.8,2.8,0,0,1-2.79-2.79V2.79A2.78,2.78,0,0,1,44.63,0ZM49.63,4.52H46.36V21.79h3.27Z" transform="translate(0)"/>
      <path d="M70.11,26.35l-1.85-11H66.53v11H62V0h9.56a2.78,2.78,0,0,1,2.75,2.79v9.86a2.74,2.74,0,0,1-1.58,2.48l1.88,11.22Zm-.3-21.83H66.53v6.36h3.28Z" transform="translate(0)"/>
      <path d="M91.15,0a2.8,2.8,0,0,1,2.79,2.79V23.56a2.83,2.83,0,0,1-2.79,2.79H84.38a2.8,2.8,0,0,1-2.79-2.79V2.79A2.78,2.78,0,0,1,84.38,0ZM89.38,4.52H86.11V21.79h3.27Z" transform="translate(0)"/>
      <path d="M111.33,0a2.8,2.8,0,0,1,2.78,2.79V23.56a2.83,2.83,0,0,1-2.78,2.79h-9.56V0Zm-1.77,4.52h-3.28V21.79h3.28Z" transform="translate(0)"/>
      <path d="M122.17,0h4.52V26.35h-4.52Z" transform="translate(0)"/>
      <path d="M146.78,0V26.35h-4.51L139,14.83V26.35h-4.52V0h4.48l3.31,10.8V0Z" transform="translate(0)"/>
      <path d="M164.18,10.88A2.8,2.8,0,0,1,167,13.66v9.9a2.83,2.83,0,0,1-2.78,2.79H157.4a2.8,2.8,0,0,1-2.78-2.79V18.14l4.51-1.05v4.7h3.28v-6.4h-5a2.77,2.77,0,0,1-2.78-2.78V2.79A2.78,2.78,0,0,1,157.4,0h6.77A2.8,2.8,0,0,1,167,2.79V8.13l-4.56,1V4.52h-3.27v6.36Z" transform="translate(0)"/>
      <path d="M183.48,13.14l4.22,13.21h-4.55l0-.15-3.39-10.81h-.41v11h-4.52V0h4.52V10.88h.34L183.11,0h4.59Z" transform="translate(0)"/>
      <path d="M195.08,0h4.52V26.35h-4.52Z" transform="translate(0)"/>
    </g>
  </g>
</symbol><symbol id="icon-logo-tablet" viewBox="0 0 369.46 100.88">
  <title>icon-logo-tablet</title>
  <g>
    <path d="M119.86,11.43C127,9,127.59,0,120.51,0c-2,0-4.28,1.37-5.88,4.17l-9.58,16.56a13.91,13.91,0,0,1-1.37,2c-2.47-3.38-1.75-8.45,1.71-10.67L104,10.27c-7.46,4.75-5.27,18.47,7.18,18.47C121.78,28.74,126.7,16,119.86,11.43ZM111.07,26a10.26,10.26,0,0,1-5.13-1.23,18.49,18.49,0,0,0,1.77-2.53l6-10.37,1,.1C123,13.72,119.69,26,111.07,26ZM114.9,9.79l2.87-4.93c2.6-4.48,5.92-1.85,4.14,1.5C120.54,8.93,118.52,9.72,114.9,9.79Z" transform="translate(0)"/>
    <path d="M259.21,19l-.24.28a16.76,16.76,0,0,1-6.5,5c.58-.92,1-1.91,1.47-2.67l3.94-6.74c3.32-5.64-2.06-7.52-5.68-4.27l.72-1.23h-3.56L243.79,19h0l-.24.27a7.66,7.66,0,0,1-5.37,2.63l3.35-5.78c2.16-3.73.18-7.25-3.18-7.25-2.74,0-4.86,1.09-6.91,4.65l-1.74,3.05L228.23,19l-.19.22c-2.56,3-5.06,5.34-6.63,5.34-.79,0-1.24-.55-.42-1.95l5.14-9c1.54-2.7.07-4.65-1.92-4.65-1.54,0-3.18.85-5,2.7l5.68-9.89h-3.56L211.45,19l-.21.23A22,22,0,0,1,207,23.1c1.13-3.39.89-8.59,3.08-13.14l-2.67-1.44c-1.47,2-4.69,6.67-7.9,10.44h0l-.24.27c-2.57,3-5.07,5.34-6.64,5.34-.79,0-1.23-.55-.41-1.95l3.56-6.23c1.23-2.16.65-3.42-.52-4.82l-2-2.4a1.39,1.39,0,0,1,.2-2l-1.84-2c-2,1.81-2.19,3.83-.93,5.47L191,11c-1.57,2.23-3.69,5.24-6,8l-.24.27c-2.56,3-5.85,5.34-8.35,5.34-2.19,0-3.49-1.37-1.84-4.24l.34-.62c2.29,1,6.6.51,9.27-4.11l.51-.89c1.92-3.28.07-5.74-2.84-5.74a7.53,7.53,0,0,0-6.67,4.1L171.7,19l-.21.24a7.63,7.63,0,0,1-5.37,2.64l3.35-5.79A8.66,8.66,0,0,0,170.81,12a3,3,0,0,0-3.22-3.18,4.16,4.16,0,0,0-2.33.79l4.52-7.84h-3.63L156.18,19l-.19.21c-2.57,3-5.06,5.34-6.64,5.34-.78,0-1.23-.55-.41-1.95l3.56-6.23c1.23-2.15.65-3.42-.51-4.82l-2-2.4a1.39,1.39,0,0,1,.21-2l-1.85-2c-2,1.81-2.19,3.83-.92,5.48l.31.41c-1.58,2.22-3.7,5.23-6,8l-.24.27c-2.57,3-5.07,5.34-6.64,5.34-.79,0-1.23-.55-.41-1.95l5.75-10.06h-2A3.7,3.7,0,0,0,134.44,9c-1.92,0-4.59,1.5-6.09,4.1l-5,8.62c-1.5,2.64-.44,5.07,2.43,5.07,1.44,0,3.22-.93,4.93-2.33.17,1.37,1.27,2.33,3.08,2.33,2.94,0,6.33-3.15,9.27-6.57h0c1.71-2,3.05-3.76,5.89-7.63l.47.58a1.74,1.74,0,0,1,.21,2l-3.76,6.53c-1.51,2.64-.45,5.07,2.42,5.07,2.07,0,4.35-1.55,6.54-3.65v0c0,2.43,1.81,3.8,4.11,3.8A7.87,7.87,0,0,0,165,23.61a6.87,6.87,0,0,0,.79,0,10.4,10.4,0,0,0,4.72-1.4c-.18,2.57,1.68,4.52,4.82,4.52,4,0,8-3.15,11-6.57,1.71-2,3-3.76,5.88-7.63l.48.58a1.76,1.76,0,0,1,.2,2l-3.76,6.54c-1.51,2.63-.44,5.06,2.43,5.06s6.33-3.15,9.27-6.57h0c2-2.32,3.8-4.82,5.06-6.5-1.4,3.7-.65,10.33-4,10.33a2,2,0,0,1-1.68-1.3l-2.22,1.17a3.88,3.88,0,0,0,3.9,2.87,8.24,8.24,0,0,0,1-.07l.1,0a12.67,12.67,0,0,0,5.47-2.36l-1.23,2.12h3.6l5.4-9.41c5.48-6.87,7.9-6,6.36-3.35l-4.61,8c-1.51,2.63-.45,5.06,2.43,5.06,2.06,0,4.35-1.55,6.55-3.66,0,4.53,6.29,5.42,10.14.55h.79a10,10,0,0,0,3.81-.94L235.16,34h3.59l10.64-18.51c4-5.41,6.47-3.42,5.55-1.82l-5.37,9.31c-.59,1-1.92,1.34-2.57,0l-2,1a3.88,3.88,0,0,0,3.9,2.87h.21c5.16-.1,8.55-3.18,11.46-6.57A2.29,2.29,0,0,0,259.21,19Zm-81-5c2.06-3.52,5.68-2.94,3.56.75l-.51.89c-1.71,2.91-4,2.84-5.34,2.36Zm-45.6,5.61c-2.16,3.39-4.28,5-5.75,5-.79,0-1.23-.54-.41-1.94l5-8.66c1.92-3.32,5.71-2.46,4,.75Zm26.79,4.86a1.33,1.33,0,0,1-1.44-1.37,3.93,3.93,0,0,1,.62-1.85L159.82,19a5.26,5.26,0,0,0,2.26,3.7A3.34,3.34,0,0,1,159.38,24.43ZM163.1,21a3.84,3.84,0,0,1-1.5-3.21c0-2.54,2.46-6.68,4.48-6.68a1.36,1.36,0,0,1,1.34,1.54,4.37,4.37,0,0,1-.69,2.13Zm73.08-1.78H236a2.1,2.1,0,0,0-2.08,2.12,2.28,2.28,0,0,0,.34,1.2l0,.07c-1.67,2.87-5.74,2.33-3.62-1.37l2.7-4.69,1.71-2.9c2.5-4.25,5.92-2.57,3.77,1.13Z" transform="translate(0)"/>
  </g>
  <rect x="1.68" y="69.23" width="8.08" height="8.08" transform="translate(-50.13 25.5) rotate(-44.99)"/>
  <rect x="353.67" y="69.22" width="8.08" height="8.08" transform="translate(52.93 274.34) rotate(-44.99)"/>
  <g>
    <polygon points="46.8 73.48 48.88 73.48 48.88 65.16 52.15 65.16 52.15 63.07 46.8 63.07 46.8 73.48"/>
    <path d="M61.69,75V62.32a4.59,4.59,0,0,0-2.56-4.07,4.49,4.49,0,0,1,.48,2V72.93A4.5,4.5,0,0,1,58,76.44a5.19,5.19,0,0,1,1.66,3.69V94.24a4.63,4.63,0,0,1-4.56,4.55H41.49v2.09H57.13a4.63,4.63,0,0,0,4.56-4.56V82.21A5.21,5.21,0,0,0,60,78.52,4.46,4.46,0,0,0,61.69,75Z" transform="translate(0)"/>
    <polygon points="46.8 91.34 48.88 91.34 48.88 82.95 52.15 82.95 52.15 80.87 46.8 80.87 46.8 91.34"/>
  </g>
  <g>
    <polygon points="79.81 91.34 81.89 91.34 81.89 65.16 85.16 65.16 85.16 63.07 79.81 63.07 79.81 91.34"/>
    <path d="M92.14,58.25a4.46,4.46,0,0,1,.48,2v34a4.62,4.62,0,0,1-4.56,4.56H77a4.43,4.43,0,0,1-2-.48,4.57,4.57,0,0,0,4.07,2.56H90.15a4.62,4.62,0,0,0,4.55-4.55v-34A4.59,4.59,0,0,0,92.14,58.25Z" transform="translate(0)"/>
  </g>
  <g>
    <polygon points="112.82 73.48 114.9 73.48 114.9 65.16 118.18 65.16 118.18 63.07 112.82 63.07 112.82 73.48"/>
    <path d="M125.07,82.52a4.46,4.46,0,0,0,2.58-4.06V62.32a4.55,4.55,0,0,0-2.56-4.09,4.62,4.62,0,0,1,.48,2V76.37A4.48,4.48,0,0,1,123,80.44l3.08,18.35H120.4l.35,2.08h7.4Z" transform="translate(0)"/>
    <polygon points="115.65 80.87 112.82 80.87 112.82 98.79 107.51 98.79 107.51 100.88 114.9 100.88 114.9 82.95 116 82.95 115.65 80.87"/>
  </g>
  <g>
    <polygon points="144.84 91.34 146.93 91.34 146.93 65.16 150.2 65.16 150.2 63.07 144.84 63.07 144.84 91.34"/>
    <path d="M157.18,58.25a4.46,4.46,0,0,1,.48,2v34a4.63,4.63,0,0,1-4.56,4.56H142a4.42,4.42,0,0,1-2-.48,4.54,4.54,0,0,0,4.07,2.56h11.08a4.62,4.62,0,0,0,4.56-4.55v-34A4.59,4.59,0,0,0,157.18,58.25Z" transform="translate(0)"/>
  </g>
  <g>
    <polygon points="177.85 91.34 179.94 91.34 179.94 65.16 183.21 65.16 183.21 63.07 177.85 63.07 177.85 91.34"/>
    <path d="M190.19,58.25a4.46,4.46,0,0,1,.48,2v34a4.63,4.63,0,0,1-4.56,4.56H172.55v2.08h15.64a4.62,4.62,0,0,0,4.56-4.55v-34A4.59,4.59,0,0,0,190.19,58.25Z" transform="translate(0)"/>
  </g>
  <polygon points="211.24 57.77 211.24 98.79 205.93 98.79 205.93 100.88 213.32 100.88 213.32 57.77 211.24 57.77"/>
  <g>
    <polygon points="244.12 57.77 244.12 98.79 238.22 98.79 238.81 100.88 246.21 100.88 246.21 57.77 244.12 57.77"/>
    <polygon points="231.31 79.95 231.31 98.79 226.01 98.79 226.01 100.88 233.4 100.88 233.4 87.19 231.31 79.95"/>
  </g>
  <g>
    <path d="M263.58,83h6.11V80.87H261.5a4.44,4.44,0,0,1-2-.48A4.52,4.52,0,0,0,263.58,83Z" transform="translate(0)"/>
    <polygon points="266.41 85.72 264.32 86.21 264.32 91.34 266.41 91.34 266.41 85.72"/>
    <path d="M276.66,58.25a4.6,4.6,0,0,1,.48,2V69l-5.37,1.25v2.56l7.45-1.72V62.32A4.59,4.59,0,0,0,276.66,58.25Z" transform="translate(0)"/>
    <path d="M276.66,76.05a4.56,4.56,0,0,1,.48,2V94.23a4.63,4.63,0,0,1-4.56,4.56H261.49a4.42,4.42,0,0,1-2-.48,4.54,4.54,0,0,0,4.07,2.56h11.08a4.63,4.63,0,0,0,4.56-4.55V80.12A4.59,4.59,0,0,0,276.66,76.05Z" transform="translate(0)"/>
    <polygon points="264.32 63.07 264.32 73.48 266.41 73.48 266.41 65.16 269.68 65.16 269.68 63.07 264.32 63.07"/>
  </g>
  <g>
    <polygon points="298.01 80.87 297.33 80.87 297.33 98.79 292.03 98.79 292.03 100.88 299.42 100.88 299.42 85.35 298.01 80.87"/>
    <polygon points="313.15 57.77 310.4 57.77 304.17 77.18 311.07 98.79 305.06 98.79 305.64 100.63 305.7 100.88 313.15 100.88 306.25 79.26 313.15 57.77"/>
  </g>
  <polygon points="330.53 57.77 330.53 98.79 325.23 98.79 325.23 100.88 332.61 100.88 332.61 57.77 330.53 57.77"/>
  <rect x="361.52" y="79.65" width="8.08" height="2.95" transform="translate(49.72 282.28) rotate(-45.01)"/>
  <rect x="9.53" y="79.66" width="8.08" height="2.95" transform="translate(-53.4 33.36) rotate(-45)"/>
  <g>
    <path d="M55.65,69A4.5,4.5,0,0,1,54,72.48a5.19,5.19,0,0,1,1.66,3.69V90.28a4.62,4.62,0,0,1-4.56,4.55H35.45V51.72H51.09a4.59,4.59,0,0,1,4.56,4.56V69ZM48.2,59.11H42.84V69.52H48.2Zm0,17.8H42.84V87.38H48.2Z" transform="translate(0)"/>
    <path d="M84.1,51.72a4.59,4.59,0,0,1,4.56,4.56v34a4.62,4.62,0,0,1-4.56,4.55H73a4.58,4.58,0,0,1-4.56-4.55v-34A4.55,4.55,0,0,1,73,51.72Zm-2.89,7.39H75.85V87.38h5.36Z" transform="translate(0)"/>
    <path d="M114.71,94.83l-3-17.92h-2.83V94.83h-7.39V51.72h15.64a4.54,4.54,0,0,1,4.5,4.56V72.42A4.47,4.47,0,0,1,119,76.48l3.08,18.35Zm-.49-35.72h-5.36V69.52h5.36Z" transform="translate(0)"/>
    <path d="M149.14,51.72a4.59,4.59,0,0,1,4.56,4.56v34a4.62,4.62,0,0,1-4.56,4.55H138.06a4.58,4.58,0,0,1-4.56-4.55v-34a4.55,4.55,0,0,1,4.56-4.56Zm-2.89,7.39h-5.36V87.38h5.36Z" transform="translate(0)"/>
    <path d="M182.15,51.72a4.59,4.59,0,0,1,4.56,4.56v34a4.62,4.62,0,0,1-4.56,4.55H166.51V51.72Zm-2.89,7.39H173.9V87.38h5.36Z" transform="translate(0)"/>
    <path d="M199.89,51.72h7.39V94.83h-7.39Z" transform="translate(0)"/>
    <path d="M240.17,51.72V94.83h-7.39L227.36,76V94.83H220V51.72h7.32l5.42,17.68V51.72Z" transform="translate(0)"/>
    <path d="M268.62,69.52a4.59,4.59,0,0,1,4.56,4.56v16.2a4.63,4.63,0,0,1-4.56,4.55H257.54A4.58,4.58,0,0,1,253,90.28V81.41l7.39-1.73v7.7h5.36V76.91h-8.19A4.55,4.55,0,0,1,253,72.35V56.28a4.55,4.55,0,0,1,4.56-4.56h11.08a4.6,4.6,0,0,1,4.56,4.56V65l-7.45,1.72V59.11h-5.36V69.52Z" transform="translate(0)"/>
    <path d="M300.22,73.22l6.89,21.61h-7.45l-.06-.24-5.54-17.68h-.68V94.83H286V51.72h7.39v17.8h.55l5.67-17.8h7.51Z" transform="translate(0)"/>
    <path d="M319.19,51.72h7.39V94.83h-7.39Z" transform="translate(0)"/>
  </g>
</symbol><symbol id="icon-mustache" viewBox="0 0 44.98 12.9">
  <title>mustache-icon</title>
  <path d="M22.49,8.24a10.46,10.46,0,0,0,8.78,4.65C38.43,13.17,45,7.67,45,5.61,42.22,8.1,37.61,8.33,35.05,7.3,31.27,5.8,31.93,2.81,29.17.86a5.12,5.12,0,0,0-5.68,0,4.68,4.68,0,0,0-1,.81,4.94,4.94,0,0,0-1-.81,5.13,5.13,0,0,0-5.69,0c-2.75,2-2.09,4.93-5.87,6.44-2.56,1-7.17.8-9.93-1.69,0,2.06,6.55,7.56,13.71,7.28a10.46,10.46,0,0,0,8.78-4.65Z" transform="translate(0 0)"/>
</symbol><symbol id="icon-ok" viewBox="0 0 21.7 16.09">
  <title>ok</title>
  <path d="M-60.95,5.17a1,1,0,0,0-1.42,0L-75.75,18.55l-4.9-4.9a1,1,0,0,0-1.41,0,1,1,0,0,0,0,1.41l5.6,5.61a1,1,0,0,0,.71.29,1,1,0,0,0,.71-.29L-60.95,6.58A1,1,0,0,0-60.95,5.17Z" transform="translate(82.36 -4.87)"/>
</symbol><symbol id="icon-scissors-icon" viewBox="0 0 21 20">
  <title>scissors-icon</title>
  <g id="Page-1">
    <g id="Core">
      <g id="content-cut">
        <path id="Shape" d="M8.5,4a4,4,0,1,0-4,4,2.93,2.93,0,0,0,1.6-.4L8.5,10,6.1,12.4A2.93,2.93,0,0,0,4.5,12a4,4,0,1,0,4,4,2.93,2.93,0,0,0-.4-1.6L10.5,12l7,7h4L8.1,5.6A2.93,2.93,0,0,0,8.5,4Zm-4,2a2,2,0,1,1,2-2,2,2,0,0,1-2,2Zm0,12a2,2,0,1,1,2-2,2,2,0,0,1-2,2Zm6-8.5a.5.5,0,1,1-.5.5.47.47,0,0,1,.5-.5ZM21.5,1h-4l-6,6,2,2,8-8Z" transform="translate(-0.5)"/>
      </g>
    </g>
  </g>
</symbol><symbol id="icon-watches" viewBox="0 0 141.67 139.54">
  <title>watches</title>
  <g>
    <path d="M419.83,710.46V690a1,1,0,0,0-2,0v20.46l1,0Z" transform="translate(-348 -689)"/>
    <path d="M393.77,717.44c.57-.35,1.15-.68,1.73-1l-10.24-17.7a1,1,0,0,0-1.36-.36,1,1,0,0,0-.37,1.36Z" transform="translate(-348 -689)"/>
    <path d="M358.5,723.73a1,1,0,0,0,.37,1.36l17.68,10.27c.32-.58.65-1.16,1-1.73l-17.68-10.27A1,1,0,0,0,358.5,723.73Z" transform="translate(-348 -689)"/>
    <path d="M454.41,697.52a1,1,0,0,0-1.37.36l-10.8,18.6c.58.33,1.16.66,1.73,1l10.8-18.59A1,1,0,0,0,454.41,697.52Z" transform="translate(-348 -689)"/>
    <path d="M479.78,724.67a1,1,0,0,0,.37-1.37,1,1,0,0,0-1.37-.36l-18.61,10.77c.34.56.67,1.14,1,1.73Z" transform="translate(-348 -689)"/>
    <path d="M370.5,758.77c0-.33,0-.67,0-1H349a1,1,0,0,0,0,2h21.53C370.52,759.44,370.5,759.11,370.5,758.77Z" transform="translate(-348 -689)"/>
    <path d="M488.67,757.77H467.14c0,.33,0,.67,0,1s0,.67,0,1h21.53a1,1,0,1,0,0-2Z" transform="translate(-348 -689)"/>
    <path d="M478.8,792.45l-17.68-10.27c-.32.58-.65,1.16-1,1.73l17.68,10.27a1,1,0,1,0,1-1.73Z" transform="translate(-348 -689)"/>
    <path d="M357.88,792.87a1,1,0,0,0,.51,1.87.93.93,0,0,0,.5-.14l18.61-10.76c-.35-.57-.67-1.15-1-1.74Z" transform="translate(-348 -689)"/>
    <path d="M443.9,800.1c-.57.35-1.15.68-1.73,1l10.23,17.7a1,1,0,0,0,.87.5.93.93,0,0,0,.5-.14,1,1,0,0,0,.36-1.36Z" transform="translate(-348 -689)"/>
    <path d="M382.89,818.65a1,1,0,0,0,.37,1.37,1,1,0,0,0,.5.14,1,1,0,0,0,.86-.5l10.81-18.6c-.59-.33-1.17-.65-1.73-1Z" transform="translate(-348 -689)"/>
    <path d="M417.83,807.08v20.46a1,1,0,0,0,2,0V807.08l-1,0Z" transform="translate(-348 -689)"/>
    <path d="M452.75,740.89a1.5,1.5,0,0,0-1.51-2.6l-28.43,16.45h0a5.65,5.65,0,0,0-7.95,0l-20.34-11.82a1.5,1.5,0,0,0-1.51,2.6l20.35,11.82a5.66,5.66,0,1,0,11.14,1.44,5.55,5.55,0,0,0-.19-1.43Zm-29.41,14.46,0-.08Zm.4.59,0,0Zm-9.78-.05,0,0Zm.42-.62-.05.06Zm4.45,6.17a2.67,2.67,0,1,1,2.67-2.67A2.67,2.67,0,0,1,418.83,761.44Z" transform="translate(-348 -689)"/>
  </g>
</symbol></svg>